<mxfile host="app.diagrams.net" modified="2024-06-19T06:09:08.564Z" agent="Mozilla/5.0 (Windows NT 10.0; Win64; x64) AppleWebKit/537.36 (KHTML, like Gecko) Chrome/126.0.0.0 Safari/537.36" etag="KAiGXwmYokT2KkIbyAiV" version="24.5.3" type="github">
  <diagram name="第 1 页" id="zqUAOEaz19EFo88n6Xfu">
    <mxGraphModel dx="1075" dy="464" grid="1" gridSize="10" guides="1" tooltips="1" connect="1" arrows="1" fold="1" page="1" pageScale="1" pageWidth="827" pageHeight="1169" math="0" shadow="0">
      <root>
        <mxCell id="0" />
        <mxCell id="1" parent="0" />
        <mxCell id="J7e16loEIpS3EIJHLEXg-1" value="" style="rounded=0;whiteSpace=wrap;html=1;" vertex="1" parent="1">
          <mxGeometry x="40" y="150" width="730" height="430" as="geometry" />
        </mxCell>
        <mxCell id="J7e16loEIpS3EIJHLEXg-3" value="" style="rounded=0;whiteSpace=wrap;html=1;" vertex="1" parent="1">
          <mxGeometry x="60" y="480" width="690" height="90" as="geometry" />
        </mxCell>
        <mxCell id="J7e16loEIpS3EIJHLEXg-7" value="存储&lt;div&gt;层&lt;/div&gt;" style="rounded=0;whiteSpace=wrap;html=1;" vertex="1" parent="1">
          <mxGeometry x="60" y="360" width="50" height="50" as="geometry" />
        </mxCell>
        <mxCell id="J7e16loEIpS3EIJHLEXg-8" value="" style="rounded=0;whiteSpace=wrap;html=1;" vertex="1" parent="1">
          <mxGeometry x="120" y="360" width="630" height="50" as="geometry" />
        </mxCell>
        <mxCell id="J7e16loEIpS3EIJHLEXg-9" value="MinIO" style="rounded=1;whiteSpace=wrap;html=1;" vertex="1" parent="1">
          <mxGeometry x="180" y="370" width="120" height="30" as="geometry" />
        </mxCell>
        <mxCell id="J7e16loEIpS3EIJHLEXg-10" value="Redis" style="rounded=1;whiteSpace=wrap;html=1;" vertex="1" parent="1">
          <mxGeometry x="390" y="370" width="120" height="30" as="geometry" />
        </mxCell>
        <mxCell id="J7e16loEIpS3EIJHLEXg-11" value="Mysql" style="rounded=1;whiteSpace=wrap;html=1;" vertex="1" parent="1">
          <mxGeometry x="580" y="370" width="120" height="30" as="geometry" />
        </mxCell>
        <mxCell id="J7e16loEIpS3EIJHLEXg-12" value="中间件" style="rounded=0;whiteSpace=wrap;html=1;" vertex="1" parent="1">
          <mxGeometry x="59" y="250" width="50" height="50" as="geometry" />
        </mxCell>
        <mxCell id="J7e16loEIpS3EIJHLEXg-13" value="" style="rounded=0;whiteSpace=wrap;html=1;" vertex="1" parent="1">
          <mxGeometry x="119" y="250" width="630" height="50" as="geometry" />
        </mxCell>
        <mxCell id="J7e16loEIpS3EIJHLEXg-14" value="nacos" style="rounded=1;whiteSpace=wrap;html=1;" vertex="1" parent="1">
          <mxGeometry x="139" y="260" width="120" height="30" as="geometry" />
        </mxCell>
        <mxCell id="J7e16loEIpS3EIJHLEXg-15" value="docker" style="rounded=1;whiteSpace=wrap;html=1;" vertex="1" parent="1">
          <mxGeometry x="283" y="260" width="120" height="30" as="geometry" />
        </mxCell>
        <mxCell id="J7e16loEIpS3EIJHLEXg-16" value="docker" style="rounded=1;whiteSpace=wrap;html=1;" vertex="1" parent="1">
          <mxGeometry x="429" y="260" width="120" height="30" as="geometry" />
        </mxCell>
        <mxCell id="J7e16loEIpS3EIJHLEXg-18" value="数据层" style="text;html=1;align=center;verticalAlign=middle;whiteSpace=wrap;rounded=0;" vertex="1" parent="1">
          <mxGeometry x="70" y="480" width="60" height="30" as="geometry" />
        </mxCell>
        <mxCell id="J7e16loEIpS3EIJHLEXg-19" value="Mysql" style="shape=cylinder3;whiteSpace=wrap;html=1;boundedLbl=1;backgroundOutline=1;size=15;" vertex="1" parent="1">
          <mxGeometry x="150" y="495" width="60" height="60" as="geometry" />
        </mxCell>
        <mxCell id="J7e16loEIpS3EIJHLEXg-20" value="Redis" style="shape=cylinder3;whiteSpace=wrap;html=1;boundedLbl=1;backgroundOutline=1;size=15;" vertex="1" parent="1">
          <mxGeometry x="360" y="495" width="60" height="60" as="geometry" />
        </mxCell>
        <mxCell id="J7e16loEIpS3EIJHLEXg-21" value="MinIO" style="shape=cylinder3;whiteSpace=wrap;html=1;boundedLbl=1;backgroundOutline=1;size=15;" vertex="1" parent="1">
          <mxGeometry x="560" y="495" width="60" height="60" as="geometry" />
        </mxCell>
        <mxCell id="J7e16loEIpS3EIJHLEXg-22" value="Mysql" style="shape=cylinder3;whiteSpace=wrap;html=1;boundedLbl=1;backgroundOutline=1;size=15;" vertex="1" parent="1">
          <mxGeometry x="240" y="495" width="60" height="60" as="geometry" />
        </mxCell>
        <mxCell id="J7e16loEIpS3EIJHLEXg-23" value="Redis" style="shape=cylinder3;whiteSpace=wrap;html=1;boundedLbl=1;backgroundOutline=1;size=15;" vertex="1" parent="1">
          <mxGeometry x="450" y="495" width="60" height="60" as="geometry" />
        </mxCell>
        <mxCell id="J7e16loEIpS3EIJHLEXg-24" value="MinIO" style="shape=cylinder3;whiteSpace=wrap;html=1;boundedLbl=1;backgroundOutline=1;size=15;" vertex="1" parent="1">
          <mxGeometry x="640" y="495" width="60" height="60" as="geometry" />
        </mxCell>
      </root>
    </mxGraphModel>
  </diagram>
</mxfile>
